<svg width="22" height="19" viewBox="0 0 22 19" fill="none" xmlns="http://www.w3.org/2000/svg">
<path d="M19.4348 3.82169H16.8131L13.7365 0.723358C13.3248 0.333359 12.6965 0.333359 12.2848 0.723358C11.8948 1.13503 11.8948 1.76336 12.2848 2.17502L13.9315 3.82169H8.01647L9.66314 2.17502C10.0531 1.76336 10.0531 1.13503 9.66314 0.723358C9.27314 0.333359 8.62314 0.333359 8.23314 0.723358L5.1348 3.82169H2.51314C1.38647 3.82169 0.476471 4.73169 0.476471 5.85836V8.89169C0.476471 9.45503 0.931471 9.91003 1.4948 9.91003H1.97147L2.96814 16.3234C3.16314 17.71 4.3548 18.7284 5.76314 18.7067H16.2065C17.5931 18.7284 18.7848 17.71 18.9798 16.3234L19.9765 9.91003H20.4531C21.0165 9.91003 21.4715 9.45503 21.4715 8.89169V5.85836C21.4715 4.73169 20.5615 3.82169 19.4348 3.82169ZM2.51314 7.87336V5.85836H19.4348V7.87336H2.51314ZM17.9181 9.91003L16.9865 16.02C16.9215 16.41 16.5965 16.6917 16.2065 16.6917H5.76314C5.37314 16.6917 5.02647 16.41 4.98314 16.02L4.0298 9.91003H17.9181ZM7.25814 14.3084V12.2934C7.25814 11.73 7.71314 11.275 8.27647 11.275C8.81814 11.275 9.27314 11.73 9.27314 12.2934V14.3084C9.27314 14.8717 8.81814 15.3267 8.27647 15.3267C7.71314 15.3267 7.25814 14.8717 7.25814 14.3084ZM11.9815 14.3084V12.2934C11.9815 11.73 12.4365 11.275 12.9998 11.275C13.5631 11.275 14.0181 11.73 14.0181 12.2934V14.3084C14.0181 14.8717 13.5631 15.3267 12.9998 15.3267C12.4365 15.3267 11.9815 14.8717 11.9815 14.3084Z" fill="#5B5858"/>
</svg>
